<svg xmlns="http://www.w3.org/2000/svg" viewBox="0 0 1400 800" width="1400" height="800">
  <defs>
    <linearGradient id="epBg" x1="0%" y1="0%" x2="100%" y2="100%">
      <stop offset="0%" stop-color="#0f172a"/>
      <stop offset="100%" stop-color="#1a1a2e"/>
    </linearGradient>
    <linearGradient id="vesselMetal" x1="0%" y1="0%" x2="100%" y2="0%">
      <stop offset="0%" stop-color="#6b7280"/>
      <stop offset="40%" stop-color="#9ca3af"/>
      <stop offset="100%" stop-color="#6b7280"/>
    </linearGradient>
    <linearGradient id="hotGrad" x1="0%" y1="0%" x2="0%" y2="100%">
      <stop offset="0%" stop-color="#ef4444" stop-opacity="0.15"/>
      <stop offset="100%" stop-color="#f59e0b" stop-opacity="0.05"/>
    </linearGradient>
    <linearGradient id="coolGrad" x1="0%" y1="0%" x2="0%" y2="100%">
      <stop offset="0%" stop-color="#06b6d4" stop-opacity="0.15"/>
      <stop offset="100%" stop-color="#3b82f6" stop-opacity="0.05"/>
    </linearGradient>
    <linearGradient id="waterGrad" x1="0%" y1="0%" x2="0%" y2="100%">
      <stop offset="0%" stop-color="#0891b2"/>
      <stop offset="100%" stop-color="#06b6d4"/>
    </linearGradient>
    <marker id="epArr" viewBox="0 0 10 10" refX="10" refY="5" markerWidth="6" markerHeight="6" orient="auto-start-auto">
      <path d="M 0 0 L 10 5 L 0 10 z" fill="#34d399"/>
    </marker>
    <marker id="epArrA" viewBox="0 0 10 10" refX="10" refY="5" markerWidth="6" markerHeight="6" orient="auto-start-auto">
      <path d="M 0 0 L 10 5 L 0 10 z" fill="#f59e0b"/>
    </marker>
    <marker id="epArrB" viewBox="0 0 10 10" refX="10" refY="5" markerWidth="6" markerHeight="6" orient="auto-start-auto">
      <path d="M 0 0 L 10 5 L 0 10 z" fill="#60a5fa"/>
    </marker>
    <marker id="epArrC" viewBox="0 0 10 10" refX="10" refY="5" markerWidth="6" markerHeight="6" orient="auto-start-auto">
      <path d="M 0 0 L 10 5 L 0 10 z" fill="#06b6d4"/>
    </marker>
    <marker id="epArrP" viewBox="0 0 10 10" refX="10" refY="5" markerWidth="6" markerHeight="6" orient="auto-start-auto">
      <path d="M 0 0 L 10 5 L 0 10 z" fill="#c084fc"/>
    </marker>
    <marker id="epArrR" viewBox="0 0 10 10" refX="10" refY="5" markerWidth="6" markerHeight="6" orient="auto-start-auto">
      <path d="M 0 0 L 10 5 L 0 10 z" fill="#ef4444"/>
    </marker>
    <filter id="eqSh">
      <feDropShadow dx="2" dy="2" stdDeviation="4" flood-opacity="0.4"/>
    </filter>
    <style>
      @keyframes flowDot { to { stroke-dashoffset: -20; } }
      @keyframes steamRise { 0% { transform: translateY(0); opacity:0.5; } 100% { transform: translateY(-18px); opacity:0; } }
      @keyframes waterDrip { 0% { transform: translateY(0); opacity:0.6; } 100% { transform: translateY(12px); opacity:0; } }
      .flow-anim { stroke-dasharray: 8 6; animation: flowDot 1.5s linear infinite; }
      .steam { animation: steamRise 2s ease-out infinite; }
      .drip { animation: waterDrip 2.5s ease-in infinite; }
    </style>
  </defs>

  <rect width="1400" height="800" fill="url(#epBg)" rx="16"/>
  <text x="700" y="32" font-family="'Segoe UI',system-ui,sans-serif" font-size="17" fill="white" text-anchor="middle" font-weight="700" letter-spacing="1">COMPLETE METHANOL PLANT — EQUIPMENT LAYOUT</text>
  <text x="700" y="52" font-family="'Segoe UI',sans-serif" font-size="11" fill="#94a3b8" text-anchor="middle">Natural Gas → Desulfurization → Reformer → Heat Exchanger → Compressor → Reactor → Separator → Distillation → Product</text>

  <!-- ============================================= -->
  <!-- 1. DESULFURIZATION VESSEL -->
  <!-- ============================================= -->
  <g transform="translate(40, 180)" filter="url(#eqSh)">
    <rect width="90" height="180" rx="14" fill="url(#vesselMetal)" stroke="#9ca3af" stroke-width="1.5"/>
    <ellipse cx="45" cy="10" rx="45" ry="12" fill="#9ca3af" stroke="#d1d5db" stroke-width="1"/>
    <ellipse cx="45" cy="170" rx="45" ry="12" fill="#6b7280" stroke="#9ca3af" stroke-width="1"/>
    <!-- ZnO pellets -->
    <g opacity="0.5">
      <circle cx="30" cy="50" r="5" fill="#34d399"/><circle cx="55" cy="60" r="4" fill="#34d399"/>
      <circle cx="40" cy="80" r="5" fill="#34d399"/><circle cx="65" cy="90" r="4" fill="#34d399"/>
      <circle cx="25" cy="100" r="4" fill="#34d399"/><circle cx="50" cy="115" r="5" fill="#34d399"/>
      <circle cx="35" cy="130" r="4" fill="#34d399"/><circle cx="60" cy="140" r="5" fill="#34d399"/>
    </g>
    <text x="45" y="165" font-family="'Segoe UI',sans-serif" font-size="9" fill="white" text-anchor="middle" opacity="0.7">ZnO Guard</text>
  </g>
  <text x="85" y="390" font-family="'Segoe UI',sans-serif" font-size="12" fill="white" text-anchor="middle" font-weight="700">Desulfurizer</text>
  <text x="85" y="405" font-family="'Segoe UI',sans-serif" font-size="9" fill="#34d399" text-anchor="middle">H₂S → ZnS</text>

  <!-- Feed input arrow -->
  <text x="85" y="155" font-family="'Segoe UI',sans-serif" font-size="10" fill="#34d399" text-anchor="middle" font-weight="600">Natural Gas</text>
  <text x="85" y="167" font-family="'Segoe UI',sans-serif" font-size="9" fill="#94a3b8" text-anchor="middle">CH₄ + H₂S</text>
  <line x1="85" y1="170" x2="85" y2="178" stroke="#34d399" stroke-width="2" marker-end="url(#epArr)"/>

  <!-- ============================================= -->
  <!-- 2. STEAM METHANE REFORMER -->
  <!-- ============================================= -->
  <g transform="translate(175, 140)" filter="url(#eqSh)">
    <rect width="130" height="240" rx="8" fill="#451a03" stroke="#f59e0b" stroke-width="2"/>
    <rect x="5" y="5" width="120" height="230" rx="6" fill="url(#hotGrad)"/>
    <!-- Reformer tubes -->
    <g stroke="#9ca3af" stroke-width="2" fill="none">
      <line x1="25" y1="30" x2="25" y2="210"/>
      <line x1="45" y1="30" x2="45" y2="210"/>
      <line x1="65" y1="30" x2="65" y2="210"/>
      <line x1="85" y1="30" x2="85" y2="210"/>
      <line x1="105" y1="30" x2="105" y2="210"/>
    </g>
    <!-- Flames at bottom -->
    <g>
      <path d="M 23,215 Q 27,200 31,215" fill="#f59e0b" opacity="0.6"/>
      <path d="M 43,215 Q 47,198 51,215" fill="#ef4444" opacity="0.5"/>
      <path d="M 63,215 Q 67,200 71,215" fill="#f59e0b" opacity="0.6"/>
      <path d="M 83,215 Q 87,198 91,215" fill="#ef4444" opacity="0.5"/>
      <path d="M 103,215 Q 107,200 111,215" fill="#f59e0b" opacity="0.6"/>
    </g>
    <text x="65" y="125" font-family="'Segoe UI',sans-serif" font-size="11" fill="white" text-anchor="middle" font-weight="700" opacity="0.9">SMR</text>
    <text x="65" y="140" font-family="'Segoe UI',sans-serif" font-size="9" fill="#fbbf24" text-anchor="middle">700–900°C</text>
  </g>
  <text x="240" y="408" font-family="'Segoe UI',sans-serif" font-size="12" fill="white" text-anchor="middle" font-weight="700">Reformer</text>
  <text x="240" y="423" font-family="'Segoe UI',sans-serif" font-size="9" fill="#f59e0b" text-anchor="middle">CH₄+H₂O → CO+3H₂</text>

  <!-- Steam input (from below) -->
  <text x="210" y="440" font-family="'Segoe UI',sans-serif" font-size="9" fill="#06b6d4" text-anchor="middle">Steam H₂O ↑</text>
  <line x1="210" y1="430" x2="210" y2="383" stroke="#06b6d4" stroke-width="1.5" stroke-dasharray="4 3"/>

  <!-- Pipe: Desulf → Reformer -->
  <line x1="132" y1="270" x2="173" y2="270" stroke="#34d399" stroke-width="2.5" marker-end="url(#epArr)"/>

  <!-- ============================================= -->
  <!-- 3. FEED/EFFLUENT HEAT EXCHANGER -->
  <!-- ============================================= -->
  <g transform="translate(350, 190)" filter="url(#eqSh)">
    <rect width="100" height="150" rx="10" fill="#1e293b" stroke="#f59e0b" stroke-width="1.5"/>
    <!-- Shell -->
    <rect x="10" y="15" width="80" height="120" rx="6" fill="none" stroke="#6b7280" stroke-width="1"/>
    <!-- Hot side (serpentine) -->
    <path d="M 20,30 L 80,30 L 80,50 L 20,50 L 20,70 L 80,70 L 80,90 L 20,90 L 20,110 L 80,110" fill="none" stroke="#ef4444" stroke-width="2" opacity="0.6"/>
    <!-- Cold side arrows -->
    <line x1="0" y1="45" x2="10" y2="45" stroke="#3b82f6" stroke-width="2"/>
    <line x1="0" y1="95" x2="10" y2="95" stroke="#3b82f6" stroke-width="2"/>
    <line x1="90" y1="45" x2="100" y2="45" stroke="#f87171" stroke-width="2"/>
    <line x1="90" y1="95" x2="100" y2="95" stroke="#f87171" stroke-width="2"/>
    <text x="50" y="145" font-family="'Segoe UI',sans-serif" font-size="9" fill="#94a3b8" text-anchor="middle">Hot↔Cold</text>
  </g>
  <text x="400" y="368" font-family="'Segoe UI',sans-serif" font-size="12" fill="white" text-anchor="middle" font-weight="700">Heat Exchanger</text>
  <text x="400" y="383" font-family="'Segoe UI',sans-serif" font-size="9" fill="#f59e0b" text-anchor="middle">Feed preheat 200°C</text>

  <!-- Pipe: Reformer → Heat Exchanger -->
  <line x1="307" y1="265" x2="348" y2="265" stroke="#f59e0b" stroke-width="2.5" marker-end="url(#epArrA)"/>
  <text x="328" y="258" font-family="'Segoe UI',sans-serif" font-size="9" fill="#94a3b8" text-anchor="middle">Syngas</text>

  <!-- ============================================= -->
  <!-- 4. COMPRESSOR -->
  <!-- ============================================= -->
  <g transform="translate(495, 220)" filter="url(#eqSh)">
    <polygon points="0,90 90,50 90,130" fill="#1e293b" stroke="#60a5fa" stroke-width="2"/>
    <!-- Rotor -->
    <circle cx="55" cy="90" r="18" fill="none" stroke="#60a5fa" stroke-width="1.5"/>
    <line x1="55" y1="72" x2="55" y2="108" stroke="#60a5fa" stroke-width="1.5"/>
    <line x1="37" y1="90" x2="73" y2="90" stroke="#60a5fa" stroke-width="1.5"/>
    <text x="45" y="60" font-family="'Segoe UI',sans-serif" font-size="9" fill="#60a5fa" text-anchor="middle">→ 80 bar</text>
  </g>
  <text x="545" y="378" font-family="'Segoe UI',sans-serif" font-size="12" fill="white" text-anchor="middle" font-weight="700">Compressor</text>
  <text x="545" y="393" font-family="'Segoe UI',sans-serif" font-size="9" fill="#60a5fa" text-anchor="middle">50–100 bar</text>

  <!-- Pipe: HX → Compressor -->
  <line x1="452" y1="265" x2="493" y2="305" stroke="#f59e0b" stroke-width="2.5" marker-end="url(#epArrA)"/>

  <!-- ============================================= -->
  <!-- 5. SYNTHESIS REACTOR (main) -->
  <!-- ============================================= -->
  <g transform="translate(630, 100)" filter="url(#eqSh)">
    <rect x="0" y="20" width="120" height="310" rx="16" fill="url(#vesselMetal)" stroke="#9ca3af" stroke-width="2"/>
    <ellipse cx="60" cy="24" rx="60" ry="16" fill="#9ca3af" stroke="#d1d5db" stroke-width="1.5"/>
    <ellipse cx="60" cy="326" rx="60" ry="16" fill="#6b7280" stroke="#9ca3af" stroke-width="1.5"/>
    <!-- 4 catalyst beds -->
    <rect x="15" y="45" width="90" height="45" rx="4" fill="#f59e0b" opacity="0.85" stroke="#d97706" stroke-width="0.5"/>
    <text x="60" y="72" font-family="'Segoe UI',sans-serif" font-size="9" fill="white" text-anchor="middle" font-weight="600">Bed 1</text>
    <!-- Quench zone 1 -->
    <rect x="15" y="95" width="90" height="12" rx="3" fill="#0e7490" opacity="0.35"/>
    <text x="60" y="104" font-family="'Segoe UI',sans-serif" font-size="9" fill="#22d3ee" text-anchor="middle">Quench</text>
    <rect x="15" y="112" width="90" height="45" rx="4" fill="#eab308" opacity="0.75" stroke="#ca8a04" stroke-width="0.5"/>
    <text x="60" y="139" font-family="'Segoe UI',sans-serif" font-size="9" fill="white" text-anchor="middle" font-weight="600">Bed 2</text>
    <!-- Quench zone 2 -->
    <rect x="15" y="162" width="90" height="12" rx="3" fill="#0e7490" opacity="0.3"/>
    <text x="60" y="171" font-family="'Segoe UI',sans-serif" font-size="9" fill="#22d3ee" text-anchor="middle">Quench</text>
    <rect x="15" y="179" width="90" height="45" rx="4" fill="#d97706" opacity="0.65" stroke="#b45309" stroke-width="0.5"/>
    <text x="60" y="206" font-family="'Segoe UI',sans-serif" font-size="9" fill="white" text-anchor="middle" font-weight="600">Bed 3</text>
    <!-- Quench zone 3 -->
    <rect x="15" y="229" width="90" height="12" rx="3" fill="#0e7490" opacity="0.25"/>
    <text x="60" y="238" font-family="'Segoe UI',sans-serif" font-size="9" fill="#22d3ee" text-anchor="middle">Quench</text>
    <rect x="15" y="246" width="90" height="45" rx="4" fill="#b45309" opacity="0.55" stroke="#92400e" stroke-width="0.5"/>
    <text x="60" y="273" font-family="'Segoe UI',sans-serif" font-size="9" fill="white" text-anchor="middle" font-weight="600">Bed 4</text>
    <!-- Cold-shot manifold left -->
    <rect x="-18" y="55" width="8" height="200" rx="4" fill="#0e7490" stroke="#06b6d4" stroke-width="0.8" opacity="0.5"/>
    <line x1="-10" y1="100" x2="15" y2="100" stroke="#06b6d4" stroke-width="1.5" opacity="0.5"/>
    <line x1="-10" y1="167" x2="15" y2="167" stroke="#06b6d4" stroke-width="1.5" opacity="0.5"/>
    <line x1="-10" y1="234" x2="15" y2="234" stroke="#06b6d4" stroke-width="1.5" opacity="0.5"/>
  </g>
  <text x="690" y="448" font-family="'Segoe UI',sans-serif" font-size="13" fill="white" text-anchor="middle" font-weight="700">Synthesis Reactor</text>
  <text x="690" y="463" font-family="'Segoe UI',sans-serif" font-size="10" fill="#f59e0b" text-anchor="middle">ICI 4-Bed Quench</text>
  <text x="690" y="478" font-family="'Segoe UI',sans-serif" font-size="9" fill="#34d399" text-anchor="middle">CO + 2H₂ → CH₃OH</text>

  <!-- Pipe: Compressor → Reactor -->
  <line x1="587" y1="310" x2="628" y2="260" stroke="#60a5fa" stroke-width="2.5" marker-end="url(#epArrB)"/>

  <!-- ============================================= -->
  <!-- 6. COOLING WATER SYSTEM (right of reactor) -->
  <!-- ============================================= -->
  <g transform="translate(770, 150)">
    <!-- Cooling water tank -->
    <rect width="80" height="60" rx="8" fill="#1e293b" stroke="#06b6d4" stroke-width="1.5"/>
    <rect x="8" y="20" width="64" height="30" rx="4" fill="url(#waterGrad)" opacity="0.3"/>
    <!-- Water drops -->
    <circle cx="25" cy="36" r="2" fill="#06b6d4" opacity="0.5" class="drip"/>
    <circle cx="45" cy="33" r="1.8" fill="#06b6d4" opacity="0.4" class="drip" style="animation-delay:0.8s"/>
    <circle cx="60" cy="38" r="2.2" fill="#06b6d4" opacity="0.45" class="drip" style="animation-delay:1.5s"/>
    <text x="40" y="15" font-family="'Segoe UI',sans-serif" font-size="9" fill="#22d3ee" text-anchor="middle" font-weight="600">Cooling Water</text>
  </g>
  <!-- Pipe: CW → Reactor shell -->
  <path d="M 770,190 L 755,240 L 755,350 L 770,360" fill="none" stroke="#06b6d4" stroke-width="2" class="flow-anim"/>
  <text x="762" y="300" font-family="'Segoe UI',sans-serif" font-size="9" fill="#06b6d4" writing-mode="tb" text-anchor="middle">CW Supply</text>
  <!-- CW return -->
  <path d="M 770,370 L 785,350 L 785,250 L 770,230" fill="none" stroke="#f87171" stroke-width="1.5" stroke-dasharray="4 3" opacity="0.5"/>
  <text x="795" y="300" font-family="'Segoe UI',sans-serif" font-size="9" fill="#f87171" writing-mode="tb" text-anchor="middle" opacity="0.6">CW Return (warm)</text>
  <text x="810" y="428" font-family="'Segoe UI',sans-serif" font-size="10" fill="white" text-anchor="middle" font-weight="600">Cooling</text>
  <text x="810" y="443" font-family="'Segoe UI',sans-serif" font-size="9" fill="#06b6d4" text-anchor="middle">Shell-side</text>

  <!-- ============================================= -->
  <!-- 7. SEPARATOR (Flash Drum) -->
  <!-- ============================================= -->
  <g transform="translate(870, 180)" filter="url(#eqSh)">
    <rect width="80" height="200" rx="14" fill="url(#vesselMetal)" stroke="#9ca3af" stroke-width="1.5"/>
    <ellipse cx="40" cy="14" rx="40" ry="12" fill="#9ca3af" stroke="#d1d5db" stroke-width="1"/>
    <ellipse cx="40" cy="186" rx="40" ry="12" fill="#6b7280" stroke="#9ca3af" stroke-width="1"/>
    <!-- Liquid level -->
    <rect x="8" y="120" width="64" height="55" rx="4" fill="#c084fc" opacity="0.15"/>
    <line x1="8" y1="120" x2="72" y2="120" stroke="#c084fc" stroke-width="1" stroke-dasharray="3 2"/>
    <text x="40" y="115" font-family="'Segoe UI',sans-serif" font-size="9" fill="#94a3b8" text-anchor="middle">Gas phase</text>
    <text x="40" y="150" font-family="'Segoe UI',sans-serif" font-size="9" fill="#c084fc" text-anchor="middle">Liquid MeOH</text>
    <!-- Steam bubbles rising from liquid -->
    <circle cx="25" cy="130" r="2" fill="#c084fc" opacity="0.3" class="steam"/>
    <circle cx="50" cy="135" r="1.5" fill="#c084fc" opacity="0.25" class="steam" style="animation-delay:0.6s"/>
    <circle cx="38" cy="125" r="1.8" fill="#c084fc" opacity="0.28" class="steam" style="animation-delay:1.2s"/>
  </g>
  <text x="910" y="410" font-family="'Segoe UI',sans-serif" font-size="12" fill="white" text-anchor="middle" font-weight="700">Separator</text>
  <text x="910" y="425" font-family="'Segoe UI',sans-serif" font-size="9" fill="#c084fc" text-anchor="middle">Flash @ 30 bar</text>

  <!-- Pipe: Reactor → Separator -->
  <line x1="752" y1="370" x2="868" y2="310" stroke="#34d399" stroke-width="2.5" class="flow-anim" marker-end="url(#epArr)"/>
  <text x="810" y="332" font-family="'Segoe UI',sans-serif" font-size="9" fill="#94a3b8" text-anchor="middle">Product gas</text>

  <!-- ============================================= -->
  <!-- 8. RECYCLE LOOP (top, from separator back to compressor) -->
  <!-- ============================================= -->
  <path d="M 910,178 L 910,100 Q 910,80 890,80 L 560,80 Q 540,80 540,100 L 540,218"
        fill="none" stroke="#f59e0b" stroke-width="2.5" class="flow-anim" marker-end="url(#epArrA)"/>
  <rect x="660" y="67" width="140" height="22" rx="8" fill="#451a03" stroke="#f59e0b" stroke-width="1"/>
  <text x="730" y="82" font-family="'Segoe UI',sans-serif" font-size="10" fill="#fbbf24" text-anchor="middle" font-weight="600">♻ Recycle Loop RR=3.5</text>
  <text x="730" y="62" font-family="'Segoe UI',sans-serif" font-size="9" fill="#94a3b8" text-anchor="middle">Unreacted H₂+CO (~95%)</text>

  <!-- Purge gas branch -->
  <line x1="820" y1="80" x2="820" y2="55" stroke="#ef4444" stroke-width="1.5" marker-end="url(#epArrR)"/>
  <text x="820" y="48" font-family="'Segoe UI',sans-serif" font-size="9" fill="#f87171" text-anchor="middle">Purge</text>
  <text x="820" y="38" font-family="'Segoe UI',sans-serif" font-size="9" fill="#94a3b8" text-anchor="middle">Inerts: N₂, CH₄</text>

  <!-- ============================================= -->
  <!-- 9. DISTILLATION COLUMN -->
  <!-- ============================================= -->
  <g transform="translate(1010, 120)" filter="url(#eqSh)">
    <rect width="70" height="310" rx="10" fill="url(#vesselMetal)" stroke="#a855f7" stroke-width="2"/>
    <ellipse cx="35" cy="10" rx="35" ry="10" fill="#9ca3af" stroke="#d1d5db" stroke-width="1"/>
    <ellipse cx="35" cy="300" rx="35" ry="10" fill="#6b7280" stroke="#9ca3af" stroke-width="1"/>
    <!-- Trays -->
    <g stroke="#a855f7" stroke-width="0.7" opacity="0.5">
      <line x1="12" y1="50" x2="58" y2="50"/>
      <line x1="12" y1="75" x2="58" y2="75"/>
      <line x1="12" y1="100" x2="58" y2="100"/>
      <line x1="12" y1="125" x2="58" y2="125"/>
      <line x1="12" y1="150" x2="58" y2="150"/>
      <line x1="12" y1="175" x2="58" y2="175"/>
      <line x1="12" y1="200" x2="58" y2="200"/>
      <line x1="12" y1="225" x2="58" y2="225"/>
      <line x1="12" y1="250" x2="58" y2="250"/>
      <line x1="12" y1="275" x2="58" y2="275"/>
    </g>
    <!-- Vapour rising -->
    <circle cx="25" cy="90" r="2" fill="#a855f7" opacity="0.2" class="steam"/>
    <circle cx="45" cy="140" r="1.5" fill="#a855f7" opacity="0.18" class="steam" style="animation-delay:0.5s"/>
    <circle cx="30" cy="190" r="2" fill="#a855f7" opacity="0.15" class="steam" style="animation-delay:1s"/>
    <circle cx="50" cy="60" r="1.8" fill="#a855f7" opacity="0.22" class="steam" style="animation-delay:1.5s"/>
    <!-- Labels inside -->
    <text x="35" y="45" font-family="'Segoe UI',sans-serif" font-size="9" fill="#c084fc" text-anchor="middle">Enriching</text>
    <text x="35" y="265" font-family="'Segoe UI',sans-serif" font-size="9" fill="#c084fc" text-anchor="middle">Stripping</text>
  </g>
  <text x="1045" y="458" font-family="'Segoe UI',sans-serif" font-size="12" fill="white" text-anchor="middle" font-weight="700">Distillation</text>
  <text x="1045" y="473" font-family="'Segoe UI',sans-serif" font-size="9" fill="#c084fc" text-anchor="middle">99.85% purity</text>

  <!-- Condenser (top of column) -->
  <g transform="translate(1090, 100)">
    <rect width="60" height="35" rx="6" fill="#1e293b" stroke="#06b6d4" stroke-width="1"/>
    <path d="M 10,10 L 50,10 L 50,25 L 10,25 Z" fill="none" stroke="#06b6d4" stroke-width="1" opacity="0.5"/>
    <text x="30" y="20" font-family="'Segoe UI',sans-serif" font-size="9" fill="#22d3ee" text-anchor="middle">Condenser</text>
  </g>
  <line x1="1082" y1="125" x2="1088" y2="118" stroke="#a855f7" stroke-width="1.5"/>
  <!-- Reflux return -->
  <path d="M 1120,137 L 1120,155 Q 1120,165 1110,165 L 1082,165" fill="none" stroke="#06b6d4" stroke-width="1.5" marker-end="url(#epArrC)"/>
  <text x="1125" y="155" font-family="'Segoe UI',sans-serif" font-size="9" fill="#22d3ee">Reflux</text>

  <!-- Reboiler (bottom of column) -->
  <g transform="translate(1090, 380)">
    <rect width="60" height="35" rx="6" fill="#1e293b" stroke="#ef4444" stroke-width="1"/>
    <path d="M 15,22 Q 20,14 25,22 Q 30,14 35,22 Q 40,14 45,22" fill="none" stroke="#f59e0b" stroke-width="1.5" opacity="0.6"/>
    <text x="30" y="15" font-family="'Segoe UI',sans-serif" font-size="9" fill="#f87171" text-anchor="middle">Reboiler</text>
  </g>
  <line x1="1082" y1="395" x2="1088" y2="395" stroke="#ef4444" stroke-width="1.5"/>
  <!-- Boilup return -->
  <path d="M 1120,378 L 1120,360 Q 1120,350 1110,350 L 1082,350" fill="none" stroke="#f87171" stroke-width="1.5" stroke-dasharray="4 3" opacity="0.6"/>
  <text x="1130" y="365" font-family="'Segoe UI',sans-serif" font-size="9" fill="#f87171">Boilup</text>
  <text x="1130" y="408" font-family="'Segoe UI',sans-serif" font-size="9" fill="#94a3b8">50 kW</text>

  <!-- Pipe: Separator → Distillation -->
  <line x1="952" y1="330" x2="1008" y2="250" stroke="#c084fc" stroke-width="2.5" marker-end="url(#epArrP)"/>
  <text x="980" y="280" font-family="'Segoe UI',sans-serif" font-size="9" fill="#94a3b8" text-anchor="middle">Crude MeOH</text>

  <!-- Water output from reboiler -->
  <line x1="1150" y1="405" x2="1180" y2="405" stroke="#06b6d4" stroke-width="1.5"/>
  <text x="1200" y="408" font-family="'Segoe UI',sans-serif" font-size="9" fill="#22d3ee">Water</text>

  <!-- ============================================= -->
  <!-- 10. PRODUCT TANK -->
  <!-- ============================================= -->
  <g transform="translate(1220, 200)" filter="url(#eqSh)">
    <rect width="120" height="100" rx="12" fill="#064e3b" stroke="#10b981" stroke-width="2.5"/>
    <rect x="10" y="40" width="100" height="45" rx="6" fill="#10b981" opacity="0.12"/>
    <text x="60" y="30" font-family="'Segoe UI',sans-serif" font-size="18" fill="#34d399" text-anchor="middle">★</text>
    <text x="60" y="58" font-family="'Segoe UI',sans-serif" font-size="12" fill="white" text-anchor="middle" font-weight="700">Pure MeOH</text>
    <text x="60" y="74" font-family="'Segoe UI',sans-serif" font-size="10" fill="#34d399" text-anchor="middle">Grade AA</text>
    <text x="60" y="90" font-family="'Segoe UI',sans-serif" font-size="9" fill="#94a3b8" text-anchor="middle">$740/MT</text>
  </g>
  <!-- Pipe: Distillation top product → Tank -->
  <path d="M 1152,118 L 1190,118 Q 1210,118 1210,138 L 1210,198" fill="none" stroke="#10b981" stroke-width="2.5" marker-end="url(#epArr)"/>
  <text x="1195" y="160" font-family="'Segoe UI',sans-serif" font-size="9" fill="#34d399">Product</text>

  <!-- ============================================= -->
  <!-- LEGEND -->
  <!-- ============================================= -->
  <g transform="translate(40, 520)">
    <rect width="360" height="240" rx="10" fill="#1e293b" stroke="#475569" stroke-width="0.5"/>
    <text x="15" y="22" font-family="'Segoe UI',sans-serif" font-size="11" fill="white" font-weight="700">LEGEND</text>

    <g font-family="'Segoe UI',sans-serif" font-size="9" fill="#94a3b8">
      <line x1="15" y1="42" x2="45" y2="42" stroke="#34d399" stroke-width="2.5"/>
      <text x="55" y="46">Process gas flow</text>

      <line x1="15" y1="62" x2="45" y2="62" stroke="#f59e0b" stroke-width="2.5" stroke-dasharray="8 6"/>
      <text x="55" y="66">Recycle stream</text>

      <line x1="15" y1="82" x2="45" y2="82" stroke="#06b6d4" stroke-width="2"/>
      <text x="55" y="86">Cooling water / utilities</text>

      <line x1="15" y1="102" x2="45" y2="102" stroke="#c084fc" stroke-width="2.5"/>
      <text x="55" y="106">Liquid methanol</text>

      <line x1="15" y1="122" x2="45" y2="122" stroke="#ef4444" stroke-width="1.5" stroke-dasharray="4 3"/>
      <text x="55" y="126">Purge / waste / hot return</text>

      <rect x="15" y="136" width="16" height="12" rx="3" fill="#f59e0b" opacity="0.6"/>
      <text x="55" y="146">Catalyst bed</text>

      <rect x="15" y="156" width="16" height="12" rx="3" fill="#0e7490" opacity="0.35"/>
      <text x="55" y="166">Quench zone</text>
    </g>

    <text x="200" y="42" font-family="'Segoe UI',sans-serif" font-size="9" fill="#60a5fa" font-weight="600">Key Numbers</text>
    <g font-family="'Segoe UI',sans-serif" font-size="9" fill="#94a3b8" transform="translate(200, 0)">
      <text y="60"><tspan fill="#34d399">Feed:</tspan> H₂ 0–10, CO 0–5 mol/s</text>
      <text y="78"><tspan fill="#f59e0b">SMR:</tspan> 700–900°C, S/C ≈ 3</text>
      <text y="96"><tspan fill="#60a5fa">Reactor:</tspan> 250°C, 80 bar</text>
      <text y="114"><tspan fill="#c084fc">Conversion:</tspan> ~5% per pass</text>
      <text y="132"><tspan fill="#fbbf24">Recycle:</tspan> RR = 3.5</text>
      <text y="150"><tspan fill="#ef4444">Safety:</tspan> 300°C shutdown</text>
      <text y="168"><tspan fill="#10b981">Product:</tspan> 99.85% AA grade</text>
    </g>

    <text x="15" y="196" font-family="'Segoe UI',sans-serif" font-size="9" fill="#60a5fa" font-weight="600">Agent controls 13 variables across all stages</text>
    <text x="15" y="214" font-family="'Segoe UI',sans-serif" font-size="9" fill="#94a3b8">Feed • Cooling • Compressor • Purge • Recycle • Preheat • Reformer • Distillation • Flare</text>
    <text x="15" y="230" font-family="'Segoe UI',sans-serif" font-size="9" fill="#94a3b8">Observations: 30+ fields including all plant stages + MCP context</text>
  </g>
</svg>
